<?xml version="1.0" encoding="utf-8"?>
<!-- Generator: Adobe Illustrator 25.4.1, SVG Export Plug-In . SVG Version: 6.00 Build 0)  -->
<svg version="1.1" id="Capa_1" xmlns="http://www.w3.org/2000/svg" xmlns:xlink="http://www.w3.org/1999/xlink" x="0px" y="0px"
	 viewBox="0 0 500 500" style="enable-background:new 0 0 500 500;" xml:space="preserve">
<style type="text/css">
	.st0{fill:#161AE9;}
	.st1{fill:#7740FE;}
	.st2{fill:#4F3BE8;}
	.st3{fill:#FFFFFF;}
</style>
<g>
	<path class="st0" d="M479.74,179.3c-9.97-1.7-18.96,0.65-22.83,5.59c-2.79,3.56-3.87,7.67-3.87,7.67c-0.3,1.21-0.43,3.02-0.69,6.64
		c-0.15,2.05-0.22,4.13-0.38,8.29c-0.13,3.45-0.14,4.4-0.12,5.56c0.03,1.74,0.07,3.4,0.4,5.52c0.07,0.46,0.43,2.53,1.08,4.7
		c0.92,3.05,2.81,9.33,7.67,11.24c2.26,0.89,4.27,0.46,6.65,0c0.66-0.13,9.45-1.95,11.35-7.88c0.26-0.81,0.32-2.42,0.45-5.65
		c0.12-2.97,0.06-5.19,0.04-5.87c-0.22-9.08-0.01-19.46,0.07-23.06c0.02-0.78,0.04-2.08,0.08-4.09
		C479.69,185.05,479.74,182.16,479.74,179.3z"/>
	<path class="st0" d="M20.97,333.48c9.12,1.55,17.36-0.6,20.9-5.11c2.55-3.26,3.54-7.02,3.54-7.02c0.28-1.11,0.4-2.77,0.63-6.08
		c0.13-1.88,0.21-3.78,0.35-7.59c0.12-3.15,0.13-4.03,0.11-5.09c-0.03-1.6-0.07-3.11-0.36-5.05c-0.06-0.42-0.39-2.32-0.99-4.3
		c-0.84-2.79-2.57-8.54-7.02-10.29c-2.07-0.81-3.9-0.42-6.09,0c-0.6,0.12-8.65,1.78-10.39,7.21c-0.24,0.74-0.29,2.22-0.41,5.17
		c-0.11,2.72-0.06,4.75-0.04,5.37c0.2,8.31,0,17.81-0.06,21.11c-0.01,0.72-0.04,1.9-0.07,3.75
		C21.02,328.23,20.97,330.87,20.97,333.48z"/>
	<path class="st0" d="M88.68,220.32 M20.97,330.27V177.51c0-9.7,2.14-18.28,6.43-25.74c4.29-7.47,10.26-13.34,17.91-17.64
		c7.64-4.28,16.51-6.43,26.57-6.43c7.65,0,4.02,23.78-0.27,23.78c-8.03,0-14.23,2.29-18.6,6.85c-4.39,4.58-6.58,10.96-6.58,19.17
		v84.6v21.91v19.18L20.97,330.27z"/>
	<path class="st0" d="M271,333.07c-12.86,0-24.52-3.09-34.97-9.23c-10.44-6.16-18.74-14.5-24.9-25.05
		c-6.16-10.53-9.23-22.34-9.23-35.4c0-12.86,3.07-24.48,9.23-34.83c6.16-10.36,14.46-18.61,24.9-24.76
		c10.45-6.16,22.11-9.23,34.97-9.23c13.06,0,24.85,3.03,35.4,9.09c10.54,6.07,18.89,14.32,25.05,24.76
		c6.16,10.45,9.23,22.11,9.23,34.97c0,13.06-3.07,24.86-9.23,35.4c-6.16,10.54-14.5,18.89-25.05,25.05
		C295.85,329.99,284.06,333.07,271,333.07z M271,308.73c8.58,0,16.13-1.96,22.67-5.87c6.52-3.93,11.66-9.28,15.39-16.1
		c3.72-6.8,5.59-14.58,5.59-23.36c0-8.57-1.91-16.22-5.74-22.94c-3.83-6.72-8.95-11.98-15.38-15.8c-6.43-3.83-13.95-5.74-22.53-5.74
		c-8.21,0-15.57,1.91-22.1,5.74c-6.53,3.83-11.66,9.09-15.39,15.8s-5.59,14.37-5.59,22.94c0,8.78,1.86,16.57,5.59,23.36
		c3.73,6.82,8.86,12.17,15.39,16.1C255.42,306.78,262.79,308.73,271,308.73z"/>
	<path class="st0" d="M290.85,206.58c0.15-23.02,18.6-40.05,43.23-40.11c24.68-0.07,43.41,16.96,43.98,39.76
		c0.21,8.55,0.09,17.23,1.63,25.61c3.13,17,18.03,27.69,36.66,27.39c17.84-0.29,32.8-11.56,34.43-28.43c0.71-7.31,1.55-36.2,2-36.95
		c1.7-2.84,4.81-4.01,6.51-4.65c1.29-0.49,5.5-2.01,10.71-0.74c2.13,0.52,5.94,1.44,7.97,4.71c0.39,0.62,1.31,2.1,1.48,4.11
		c0.07,0.83-0.05,1.26-0.04,4.29c0.01,2.27,0.02,3.16,0.03,5.76c0.04,6.75,0.06,10.12,0.02,12.54c-0.06,3.61-0.09,5.92-0.28,8.53
		c-0.3,4.08-0.67,10.78-3.44,17.76c-2.08,5.25-4.97,9.5-8.39,14.07c-7.22,9.64-16.57,15.41-24.98,18.87
		c-5.27,2.17-10.16,3.43-13.92,4.18c-3.38,0.67-5.84,0.92-6.84,1.03c-1.35,0.15-3.38,0.37-6.18,0.4c-1.11,0.01-2.22-0.01-3.34-0.05
		c-19.2-0.82-40.33-10.45-51.48-28.7c-3.43-5.61-9.83-16.07-9.44-29.27c0.14-4.78,0.05-9-0.09-16.54
		c-0.22-11.42-7.07-18.95-17.07-18.89c-9.05,0.06-16.18,7.61-16.43,18.47C317.29,221.97,290.67,232.93,290.85,206.58z"/>
	<path class="st0" d="M192.75,308.2c0.59,1.05,0.85,1.31,0.86,1.57c0.94,24.12,4.68,26.28-22.66,20.82
		c-24-4.79-42.8-28.3-43.13-54.16c-0.37-29.17-0.22-58.34-0.17-87.51c0-2.43,0.01-4.91,0.01-4.92c-0.01-2.63-0.03-4.55-0.04-5.07
		c-0.03-2.22-0.07-4.04-0.09-4.99c-0.03-1.58,5.1-25.29,8.04-25.23c19.83,0.39,16.99-2.12,17.07,16.71
		c0.14,34.2,0.01,68.41,0.13,102.61c0.09,26.72,10.84,38.02,37.26,39.57C190.93,307.66,191.8,307.99,192.75,308.2z"/>
	<path class="st0" d="M46.43,237.33c0-7.95,0-15.9,0-23.84h33.56c-6.39,7.92-12.79,15.84-19.18,23.76
		C56.01,237.27,51.22,237.3,46.43,237.33z"/>
	<path class="st0" d="M153.12,141.21c-9.12-1.55-17.36,0.6-20.9,5.11c-2.55,3.26-3.54,7.02-3.54,7.02c-0.28,1.11-0.4,2.77-0.63,6.08
		c-0.13,1.88-0.21,3.78-0.35,7.59c-0.12,3.15-0.13,4.03-0.11,5.09c0.03,1.6,0.07,3.11,0.36,5.05c0.06,0.42,0.39,2.32,0.99,4.3
		c0.84,2.79,2.57,8.54,7.02,10.29c2.07,0.81,3.9,0.42,6.09,0c0.6-0.12,8.65-1.78,10.39-7.21c0.24-0.74,0.29-2.22,0.41-5.17
		c0.11-2.72,0.06-4.75,0.04-5.37c-0.2-8.31,0-17.81,0.06-21.11c0.01-0.72,0.04-1.9,0.07-3.75
		C153.07,146.47,153.12,143.83,153.12,141.21z"/>
	<path class="st0" d="M102.16,127.51c1.46,8.57-0.56,16.31-4.8,19.63c-3.06,2.4-6.59,3.33-6.6,3.33c-1.04,0.26-2.6,0.37-5.71,0.59
		c-1.77,0.13-3.55,0.19-7.13,0.33c-2.96,0.11-3.78,0.12-4.78,0.1c-1.5-0.03-2.92-0.06-4.75-0.34c-0.39-0.06-2.18-0.37-4.04-0.93
		c-2.63-0.79-8.03-2.42-9.67-6.59c-0.76-1.94-0.4-3.67,0-5.72c0.11-0.56,16.1-10.19,16.68-10.18c7.81,0.19,16.74,0,19.83-0.06
		c0.67-0.01,1.79-0.03,3.52-0.07C97.22,127.56,99.7,127.51,102.16,127.51z"/>
	<path class="st0" d="M80.29,213.51c0.51,8.58-1.99,15.81-5.79,19.29c-3.2,2.93-6.21,3.7-6.21,3.7c-1.63,0.41-3.98,0.62-5.1,0.67
		c-0.99,0.05-2.16,0.06-2.16,0.06c-0.71,0.01-1.09,0-1.78,0c-1.52,0-1.76,0.02-3.29,0.03c-1.74,0.01-1.59-0.02-3.48-0.02
		c-1.7,0-1.84,0.03-3.5,0.03c-1.76,0-2.64,0-3.22-0.05c-0.38-0.04-1.91-0.29-4.04-0.93c-2.63-0.79-8.03-2.42-9.67-6.59
		c-0.76-1.94-0.4-3.67,0-5.72c0.11-0.56,16.1-10.19,16.68-10.18c7.81,0.19,16.74,0,19.83-0.06c1.57-0.03,3.52-0.07,3.52-0.07
		c2.15,0,3.04-0.08,4.88-0.11C78.39,213.54,79.56,213.52,80.29,213.51z"/>
</g>
</svg>
