<?xml version="1.0" encoding="utf-8"?>
<!-- Generator: Adobe Illustrator 25.4.1, SVG Export Plug-In . SVG Version: 6.00 Build 0)  -->
<svg version="1.1" id="Capa_1" xmlns="http://www.w3.org/2000/svg" xmlns:xlink="http://www.w3.org/1999/xlink" x="0px" y="0px"
	 viewBox="0 0 500 500" style="enable-background:new 0 0 500 500;" xml:space="preserve">
<style type="text/css">
	.st0{fill:#161AE9;}
	.st1{fill:#7740FE;}
	.st2{fill:#4F3BE8;}
	.st3{fill:#FFFFFF;}
</style>
<g>
	<path class="st2" d="M432.96,160.81c-8.63-1.47-16.41,0.57-19.75,4.83c-2.41,3.08-3.35,6.63-3.35,6.64
		c-0.26,1.05-0.37,2.61-0.6,5.75c-0.13,1.78-0.19,3.58-0.33,7.17c-0.11,2.98-0.12,3.81-0.1,4.81c0.03,1.51,0.06,2.94,0.34,4.78
		c0.06,0.4,0.37,2.19,0.94,4.07c0.8,2.64,2.43,8.08,6.63,9.73c1.95,0.77,3.69,0.4,5.76,0c0.57-0.11,8.18-1.68,9.82-6.82
		c0.22-0.7,0.28-2.1,0.39-4.89c0.1-2.57,0.05-4.49,0.04-5.08c-0.19-7.85,0-16.84,0.06-19.95c0.01-0.68,0.03-1.8,0.07-3.54
		C432.92,165.78,432.96,163.28,432.96,160.81z"/>
	<path class="st2" d="M35.92,294.25c7.9,1.34,15.02-0.52,18.08-4.43c2.21-2.82,3.07-6.07,3.07-6.08c0.24-0.96,0.34-2.39,0.55-5.26
		c0.12-1.63,0.18-3.27,0.3-6.57c0.1-2.73,0.11-3.49,0.09-4.4c-0.03-1.38-0.06-2.69-0.31-4.37c-0.06-0.36-0.34-2.01-0.86-3.72
		c-0.73-2.42-2.23-7.4-6.07-8.91c-1.79-0.7-3.38-0.37-5.27,0c-0.52,0.1-7.49,1.54-8.99,6.24c-0.2,0.64-0.25,1.92-0.35,4.47
		c-0.09,2.35-0.05,4.11-0.03,4.65c0.17,7.19,0,15.42-0.05,18.27c-0.01,0.62-0.03,1.65-0.06,3.24
		C35.96,289.7,35.92,291.99,35.92,294.25z"/>
	<path class="st2" d="M94.51,196.31 M35.92,291.47V159.26c0-8.39,1.85-15.82,5.57-22.28c3.71-6.46,8.88-11.55,15.5-15.26
		c6.61-3.7,14.29-5.57,23-5.57c6.62,0,3.48,20.58-0.24,20.58c-6.95,0-12.32,1.98-16.1,5.93c-3.8,3.96-5.7,9.49-5.7,16.59v73.21
		v18.96v16.6L35.92,291.47z"/>
	<path class="st2" d="M252.3,293.89c-11.13,0-21.22-2.67-30.27-7.99c-9.04-5.33-16.22-12.55-21.55-21.68
		c-5.33-9.11-7.99-19.33-7.99-30.63c0-11.13,2.66-21.18,7.99-30.14c5.33-8.97,12.51-16.11,21.55-21.43
		c9.05-5.33,19.13-7.99,30.27-7.99c11.3,0,21.51,2.62,30.63,7.86c9.12,5.25,16.35,12.4,21.68,21.43c5.33,9.05,7.99,19.13,7.99,30.27
		c0,11.3-2.66,21.52-7.99,30.63c-5.33,9.12-12.55,16.35-21.68,21.68C273.81,291.22,263.6,293.89,252.3,293.89z M252.3,272.83
		c7.43,0,13.96-1.69,19.62-5.08c5.65-3.4,10.09-8.03,13.32-13.93c3.22-5.88,4.84-12.62,4.84-20.22c0-7.42-1.66-14.04-4.97-19.85
		c-3.31-5.81-7.74-10.37-13.31-13.68c-5.57-3.31-12.07-4.97-19.5-4.97c-7.1,0-13.48,1.66-19.12,4.97
		c-5.66,3.31-10.09,7.86-13.32,13.68c-3.23,5.81-4.84,12.43-4.84,19.85c0,7.6,1.61,14.34,4.84,20.22
		c3.23,5.9,7.67,10.53,13.32,13.93C238.82,271.13,245.2,272.83,252.3,272.83z"/>
	<path class="st2" d="M269.48,184.42c0.13-19.92,16.1-34.66,37.41-34.72c21.36-0.06,37.57,14.68,38.06,34.41
		c0.18,7.4,0.08,14.91,1.41,22.17c2.71,14.72,15.6,23.96,31.73,23.7c15.44-0.25,28.39-10,29.8-24.6c0.61-6.33,1.34-31.33,1.73-31.98
		c1.47-2.46,4.17-3.47,5.64-4.02c1.12-0.42,4.76-1.74,9.27-0.64c1.84,0.45,5.14,1.25,6.9,4.07c0.34,0.54,1.14,1.82,1.28,3.56
		c0.06,0.72-0.04,1.09-0.03,3.72c0.01,1.96,0.01,2.73,0.03,4.98c0.03,5.84,0.05,8.76,0.02,10.86c-0.05,3.13-0.08,5.12-0.25,7.38
		c-0.26,3.53-0.58,9.33-2.97,15.37c-1.8,4.54-4.3,8.22-7.26,12.18c-6.25,8.34-14.34,13.33-21.62,16.33
		c-4.56,1.88-8.79,2.97-12.05,3.61c-2.93,0.58-5.06,0.79-5.92,0.89c-1.17,0.13-2.93,0.32-5.35,0.34c-0.96,0.01-1.92-0.01-2.89-0.05
		c-16.62-0.71-34.9-9.05-44.56-24.84c-2.97-4.86-8.5-13.91-8.17-25.33c0.12-4.14,0.04-7.79-0.08-14.31
		c-0.19-9.88-6.12-16.4-14.77-16.35c-7.83,0.05-14,6.58-14.22,15.99C292.36,197.73,269.33,207.22,269.48,184.42z"/>
	<path class="st2" d="M184.58,272.37c0.51,0.91,0.74,1.13,0.75,1.36c0.81,20.87,4.05,22.74-19.61,18.02
		c-20.77-4.15-37.04-24.49-37.32-46.87c-0.32-25.24-0.19-50.49-0.14-75.73c0-2.1,0.01-4.25,0.01-4.26
		c-0.01-2.27-0.03-3.94-0.03-4.39c-0.02-1.92-0.06-3.49-0.07-4.32c-0.03-1.37,4.41-21.89,6.96-21.84
		c17.16,0.34,14.7-1.84,14.77,14.46c0.12,29.6,0.01,59.2,0.11,88.81c0.08,23.13,9.38,32.91,32.24,34.24
		C183.01,271.9,183.76,272.18,184.58,272.37z"/>
	<path class="st2" d="M57.95,211.03c0-6.88,0-13.76,0-20.64h29.04c-5.53,6.85-11.07,13.71-16.6,20.56
		C66.24,210.98,62.1,211.01,57.95,211.03z"/>
	<path class="st2" d="M150.28,127.85c-7.9-1.34-15.02,0.52-18.08,4.43c-2.21,2.82-3.07,6.07-3.07,6.08
		c-0.24,0.96-0.34,2.39-0.55,5.26c-0.12,1.63-0.18,3.27-0.3,6.57c-0.1,2.73-0.11,3.49-0.09,4.4c0.03,1.38,0.06,2.69,0.31,4.37
		c0.06,0.36,0.34,2.01,0.86,3.72c0.73,2.42,2.23,7.4,6.07,8.91c1.79,0.7,3.38,0.37,5.27,0c0.52-0.1,7.49-1.54,8.99-6.24
		c0.2-0.64,0.25-1.92,0.35-4.47c0.09-2.35,0.05-4.11,0.03-4.65c-0.17-7.19,0-15.42,0.05-18.27c0.01-0.62,0.03-1.65,0.06-3.24
		C150.24,132.4,150.28,130.11,150.28,127.85z"/>
	<path class="st2" d="M106.18,115.99c1.26,7.42-0.49,14.12-4.16,16.99c-2.65,2.07-5.71,2.88-5.71,2.88
		c-0.9,0.23-2.25,0.32-4.94,0.51c-1.53,0.11-3.08,0.17-6.17,0.28c-2.56,0.1-3.28,0.11-4.14,0.09c-1.3-0.02-2.53-0.05-4.11-0.29
		c-0.34-0.05-1.89-0.32-3.5-0.81c-2.27-0.68-6.95-2.09-8.37-5.71c-0.66-1.68-0.34-3.18,0-4.95c0.09-0.49,13.93-8.82,14.44-8.81
		c6.76,0.16,14.48,0,17.16-0.05c0.58-0.01,1.55-0.03,3.05-0.06C101.9,116.03,104.05,115.99,106.18,115.99z"/>
	<path class="st2" d="M87.26,190.42c0.44,7.43-1.72,13.68-5.01,16.7c-2.77,2.53-5.38,3.2-5.38,3.2c-1.41,0.36-3.45,0.54-4.42,0.58
		c-0.86,0.04-1.87,0.05-1.87,0.05c-0.62,0.01-0.95,0-1.54,0c-1.31,0-1.52,0.02-2.85,0.03c-1.51,0.01-1.38-0.02-3.02-0.01
		c-1.47,0-1.6,0.02-3.03,0.03c-1.53,0-2.29,0-2.79-0.04c-0.33-0.03-1.65-0.25-3.5-0.81c-2.27-0.68-6.95-2.09-8.37-5.71
		c-0.66-1.68-0.34-3.18,0-4.95c0.09-0.49,13.93-8.82,14.44-8.81c6.76,0.16,14.48,0,17.16-0.05c1.36-0.03,3.04-0.06,3.05-0.06
		c1.86,0,2.63-0.07,4.23-0.1C85.61,190.44,86.62,190.43,87.26,190.42z"/>
</g>
<g>
	<path class="st1" d="M451.07,180.47c-8.63-1.47-16.41,0.57-19.75,4.83c-2.41,3.08-3.35,6.63-3.35,6.64
		c-0.26,1.05-0.37,2.61-0.6,5.75c-0.13,1.78-0.19,3.58-0.33,7.17c-0.11,2.98-0.12,3.81-0.1,4.81c0.03,1.51,0.06,2.94,0.34,4.78
		c0.06,0.4,0.37,2.19,0.94,4.07c0.8,2.64,2.43,8.08,6.63,9.73c1.95,0.77,3.69,0.4,5.76,0c0.57-0.11,8.18-1.68,9.82-6.82
		c0.22-0.7,0.28-2.1,0.39-4.89c0.1-2.57,0.05-4.49,0.04-5.08c-0.19-7.85,0-16.84,0.06-19.95c0.01-0.68,0.03-1.8,0.07-3.54
		C451.02,185.44,451.07,182.94,451.07,180.47z"/>
	<path class="st1" d="M54.03,313.9c7.9,1.34,15.02-0.52,18.08-4.43c2.21-2.82,3.07-6.07,3.07-6.08c0.24-0.96,0.34-2.39,0.55-5.26
		c0.12-1.63,0.18-3.27,0.3-6.57c0.1-2.73,0.11-3.49,0.09-4.4c-0.03-1.38-0.06-2.69-0.31-4.37c-0.06-0.36-0.34-2.01-0.86-3.72
		c-0.73-2.42-2.23-7.4-6.07-8.91c-1.79-0.7-3.38-0.37-5.27,0c-0.52,0.1-7.49,1.54-8.99,6.24c-0.2,0.64-0.25,1.92-0.35,4.47
		c-0.09,2.35-0.05,4.11-0.03,4.65c0.17,7.19,0,15.42-0.05,18.27c-0.01,0.62-0.03,1.65-0.06,3.24
		C54.07,309.35,54.03,311.64,54.03,313.9z"/>
	<path class="st1" d="M112.62,215.96 M54.03,311.12V178.92c0-8.39,1.85-15.82,5.57-22.28c3.71-6.46,8.88-11.55,15.5-15.26
		c6.61-3.7,14.29-5.57,23-5.57c6.62,0,3.48,20.58-0.24,20.58c-6.95,0-12.32,1.98-16.1,5.93c-3.8,3.96-5.7,9.49-5.7,16.59v73.21
		v18.96v16.6L54.03,311.12z"/>
	<path class="st1" d="M270.41,313.55c-11.13,0-21.22-2.67-30.27-7.99c-9.04-5.33-16.22-12.55-21.55-21.68
		c-5.33-9.11-7.99-19.33-7.99-30.63c0-11.13,2.66-21.18,7.99-30.14c5.33-8.97,12.51-16.11,21.55-21.43
		c9.05-5.33,19.13-7.99,30.27-7.99c11.3,0,21.51,2.62,30.63,7.86c9.12,5.25,16.35,12.4,21.68,21.43c5.33,9.05,7.99,19.13,7.99,30.27
		c0,11.3-2.66,21.52-7.99,30.63c-5.33,9.12-12.55,16.35-21.68,21.68C291.92,310.88,281.71,313.55,270.41,313.55z M270.41,292.48
		c7.43,0,13.96-1.69,19.62-5.08c5.65-3.4,10.09-8.03,13.32-13.93c3.22-5.88,4.84-12.62,4.84-20.22c0-7.42-1.66-14.04-4.97-19.85
		s-7.74-10.37-13.31-13.68s-12.07-4.97-19.5-4.97c-7.1,0-13.48,1.66-19.12,4.97c-5.66,3.31-10.09,7.86-13.32,13.68
		s-4.84,12.43-4.84,19.85c0,7.6,1.61,14.34,4.84,20.22c3.23,5.9,7.67,10.53,13.32,13.93C256.93,290.79,263.31,292.48,270.41,292.48z
		"/>
	<path class="st1" d="M287.59,204.08c0.13-19.92,16.1-34.66,37.41-34.72c21.36-0.06,37.57,14.68,38.06,34.41
		c0.18,7.4,0.08,14.91,1.41,22.17c2.71,14.72,15.6,23.96,31.73,23.7c15.44-0.25,28.39-10,29.8-24.6c0.61-6.33,1.34-31.33,1.73-31.98
		c1.47-2.46,4.17-3.47,5.64-4.02c1.12-0.42,4.76-1.74,9.27-0.64c1.84,0.45,5.14,1.25,6.9,4.07c0.34,0.54,1.14,1.82,1.28,3.56
		c0.06,0.72-0.04,1.09-0.03,3.72c0.01,1.96,0.01,2.73,0.03,4.98c0.03,5.84,0.05,8.76,0.02,10.86c-0.05,3.13-0.08,5.12-0.25,7.38
		c-0.26,3.53-0.58,9.33-2.97,15.37c-1.8,4.54-4.3,8.22-7.26,12.18c-6.25,8.34-14.34,13.33-21.62,16.33
		c-4.56,1.88-8.79,2.97-12.05,3.61c-2.93,0.58-5.06,0.79-5.92,0.89c-1.17,0.13-2.93,0.32-5.35,0.34c-0.96,0.01-1.92-0.01-2.89-0.05
		c-16.62-0.71-34.9-9.05-44.56-24.84c-2.97-4.86-8.5-13.91-8.17-25.33c0.12-4.14,0.04-7.79-0.08-14.31
		c-0.19-9.88-6.12-16.4-14.77-16.35c-7.83,0.05-14,6.58-14.22,15.99C310.47,217.39,287.44,226.87,287.59,204.08z"/>
	<path class="st1" d="M202.69,292.02c0.51,0.91,0.74,1.13,0.75,1.36c0.81,20.87,4.05,22.74-19.61,18.02
		c-20.77-4.15-37.04-24.49-37.32-46.87c-0.32-25.24-0.19-50.49-0.14-75.73c0-2.1,0.01-4.25,0.01-4.26
		c-0.01-2.27-0.03-3.94-0.03-4.39c-0.02-1.92-0.06-3.49-0.07-4.32c-0.03-1.37,4.41-21.89,6.96-21.84
		c17.16,0.34,14.7-1.84,14.77,14.46c0.12,29.6,0.01,59.2,0.11,88.81c0.08,23.13,9.38,32.91,32.24,34.24
		C201.12,291.55,201.87,291.84,202.69,292.02z"/>
	<path class="st1" d="M76.06,230.69c0-6.88,0-13.76,0-20.64h29.04c-5.53,6.85-11.07,13.71-16.6,20.56
		C84.35,230.64,80.21,230.66,76.06,230.69z"/>
	<path class="st1" d="M168.39,147.5c-7.9-1.34-15.02,0.52-18.08,4.43c-2.21,2.82-3.07,6.07-3.07,6.08
		c-0.24,0.96-0.34,2.39-0.55,5.26c-0.12,1.63-0.18,3.27-0.3,6.57c-0.1,2.73-0.11,3.49-0.09,4.4c0.03,1.38,0.06,2.69,0.31,4.37
		c0.06,0.36,0.34,2.01,0.86,3.72c0.73,2.42,2.23,7.4,6.07,8.91c1.79,0.7,3.38,0.37,5.27,0c0.52-0.1,7.49-1.54,8.99-6.24
		c0.2-0.64,0.25-1.92,0.35-4.47c0.09-2.35,0.05-4.11,0.03-4.65c-0.17-7.19,0-15.42,0.05-18.27c0.01-0.62,0.03-1.65,0.06-3.24
		C168.35,152.05,168.39,149.76,168.39,147.5z"/>
	<path class="st1" d="M124.29,135.65c1.26,7.42-0.49,14.12-4.16,16.99c-2.65,2.07-5.71,2.88-5.71,2.88
		c-0.9,0.23-2.25,0.32-4.94,0.51c-1.53,0.11-3.08,0.17-6.17,0.28c-2.56,0.1-3.28,0.11-4.14,0.09c-1.3-0.02-2.53-0.05-4.11-0.29
		c-0.34-0.05-1.89-0.32-3.5-0.81c-2.27-0.68-6.95-2.09-8.37-5.71c-0.66-1.68-0.34-3.18,0-4.95c0.09-0.49,13.93-8.82,14.44-8.81
		c6.76,0.16,14.48,0,17.16-0.05c0.58-0.01,1.55-0.03,3.05-0.06C120.01,135.68,122.16,135.65,124.29,135.65z"/>
	<path class="st1" d="M105.37,210.07c0.44,7.43-1.72,13.68-5.01,16.7c-2.77,2.53-5.38,3.2-5.38,3.2c-1.41,0.36-3.45,0.54-4.42,0.58
		c-0.86,0.04-1.87,0.05-1.87,0.05c-0.62,0.01-0.95,0-1.54,0c-1.31,0-1.52,0.02-2.85,0.03c-1.51,0.01-1.38-0.02-3.02-0.01
		c-1.47,0-1.6,0.02-3.03,0.03c-1.53,0-2.29,0-2.79-0.04c-0.33-0.03-1.65-0.25-3.5-0.81c-2.27-0.68-6.95-2.09-8.37-5.71
		c-0.66-1.68-0.34-3.18,0-4.95c0.09-0.49,13.93-8.82,14.44-8.81c6.76,0.16,14.48,0,17.16-0.05c1.36-0.03,3.04-0.06,3.05-0.06
		c1.86,0,2.63-0.07,4.23-0.1C103.72,210.1,104.73,210.08,105.37,210.07z"/>
</g>
<g>
	<path class="st0" d="M468,201.12c-8.63-1.47-16.41,0.57-19.75,4.83c-2.41,3.08-3.35,6.63-3.35,6.64c-0.26,1.05-0.37,2.61-0.6,5.75
		c-0.13,1.78-0.19,3.58-0.33,7.17c-0.11,2.98-0.12,3.81-0.1,4.81c0.03,1.51,0.06,2.94,0.34,4.78c0.06,0.4,0.37,2.19,0.94,4.07
		c0.8,2.64,2.43,8.08,6.63,9.73c1.95,0.77,3.69,0.4,5.76,0c0.57-0.11,8.18-1.68,9.82-6.82c0.22-0.7,0.28-2.1,0.39-4.89
		c0.1-2.57,0.05-4.49,0.04-5.08c-0.19-7.85,0-16.84,0.06-19.95c0.01-0.68,0.03-1.8,0.07-3.54C467.96,206.09,468,203.59,468,201.12z"
		/>
	<path class="st0" d="M70.96,334.55c7.9,1.34,15.02-0.52,18.08-4.43c2.21-2.82,3.07-6.07,3.07-6.08c0.24-0.96,0.34-2.39,0.55-5.26
		c0.12-1.63,0.18-3.27,0.3-6.57c0.1-2.73,0.11-3.49,0.09-4.4c-0.03-1.38-0.06-2.69-0.31-4.37c-0.06-0.36-0.34-2.01-0.86-3.72
		c-0.73-2.42-2.23-7.4-6.07-8.91c-1.79-0.7-3.38-0.37-5.27,0c-0.52,0.1-7.49,1.54-8.99,6.24c-0.2,0.64-0.25,1.92-0.35,4.47
		c-0.09,2.35-0.05,4.11-0.03,4.65c0.17,7.19,0,15.42-0.05,18.27c-0.01,0.62-0.03,1.65-0.06,3.24C71,330,70.96,332.29,70.96,334.55z"
		/>
	<path class="st0" d="M129.56,236.61 M70.96,331.77V199.56c0-8.39,1.85-15.82,5.57-22.28c3.71-6.46,8.88-11.55,15.5-15.26
		c6.61-3.7,14.29-5.57,23-5.57c6.62,0,3.48,20.58-0.24,20.58c-6.95,0-12.32,1.98-16.1,5.93c-3.8,3.96-5.7,9.49-5.7,16.59v73.21
		v18.96v16.6L70.96,331.77z"/>
	<path class="st0" d="M287.34,334.2c-11.13,0-21.22-2.67-30.27-7.99c-9.04-5.33-16.22-12.55-21.55-21.68
		c-5.33-9.11-7.99-19.33-7.99-30.63c0-11.13,2.66-21.18,7.99-30.14c5.33-8.97,12.51-16.11,21.55-21.43
		c9.05-5.33,19.13-7.99,30.27-7.99c11.3,0,21.51,2.62,30.63,7.86c9.12,5.25,16.35,12.4,21.68,21.43c5.33,9.05,7.99,19.13,7.99,30.27
		c0,11.3-2.66,21.52-7.99,30.63c-5.33,9.12-12.55,16.35-21.68,21.68C308.85,331.53,298.64,334.2,287.34,334.2z M287.34,313.13
		c7.43,0,13.96-1.69,19.62-5.08c5.65-3.4,10.09-8.03,13.32-13.93c3.22-5.88,4.84-12.62,4.84-20.22c0-7.42-1.66-14.04-4.97-19.85
		c-3.31-5.81-7.74-10.37-13.31-13.68c-5.57-3.31-12.07-4.97-19.5-4.97c-7.1,0-13.48,1.66-19.12,4.97
		c-5.66,3.31-10.09,7.86-13.32,13.68c-3.23,5.81-4.84,12.43-4.84,19.85c0,7.6,1.61,14.34,4.84,20.22
		c3.23,5.9,7.67,10.53,13.32,13.93C273.86,311.44,280.24,313.13,287.34,313.13z"/>
	<path class="st0" d="M304.52,224.72c0.13-19.92,16.1-34.66,37.41-34.72c21.36-0.06,37.57,14.68,38.06,34.41
		c0.18,7.4,0.08,14.91,1.41,22.17c2.71,14.72,15.6,23.96,31.73,23.7c15.44-0.25,28.39-10,29.8-24.6c0.61-6.33,1.34-31.33,1.73-31.98
		c1.47-2.46,4.17-3.47,5.64-4.02c1.12-0.42,4.76-1.74,9.27-0.64c1.84,0.45,5.14,1.25,6.9,4.07c0.34,0.54,1.14,1.82,1.28,3.56
		c0.06,0.72-0.04,1.09-0.03,3.72c0.01,1.96,0.01,2.73,0.03,4.98c0.03,5.84,0.05,8.76,0.02,10.86c-0.05,3.13-0.08,5.12-0.25,7.38
		c-0.26,3.53-0.58,9.33-2.97,15.37c-1.8,4.54-4.3,8.22-7.26,12.18c-6.25,8.34-14.34,13.33-21.62,16.33
		c-4.56,1.88-8.79,2.97-12.05,3.61c-2.93,0.58-5.06,0.79-5.92,0.89c-1.17,0.13-2.93,0.32-5.35,0.34c-0.96,0.01-1.92-0.01-2.89-0.05
		c-16.62-0.71-34.9-9.05-44.56-24.84c-2.97-4.86-8.5-13.91-8.17-25.33c0.12-4.14,0.04-7.79-0.08-14.31
		c-0.19-9.88-6.12-16.4-14.77-16.35c-7.83,0.05-14,6.58-14.22,15.99C327.41,238.04,304.37,247.52,304.52,224.72z"/>
	<path class="st0" d="M219.62,312.67c0.51,0.91,0.74,1.13,0.75,1.36c0.81,20.87,4.05,22.74-19.61,18.02
		c-20.77-4.15-37.04-24.49-37.32-46.87c-0.32-25.24-0.19-50.49-0.14-75.73c0-2.1,0.01-4.25,0.01-4.26
		c-0.01-2.27-0.03-3.94-0.03-4.39c-0.02-1.92-0.06-3.49-0.07-4.32c-0.03-1.37,4.41-21.89,6.96-21.84
		c17.16,0.34,14.7-1.84,14.77,14.46c0.12,29.6,0.01,59.2,0.11,88.81c0.08,23.13,9.38,32.91,32.24,34.24
		C218.05,312.2,218.8,312.48,219.62,312.67z"/>
	<path class="st0" d="M92.99,251.34c0-6.88,0-13.76,0-20.64h29.04c-5.53,6.85-11.07,13.71-16.6,20.56
		C101.29,251.29,97.14,251.31,92.99,251.34z"/>
	<path class="st0" d="M185.32,168.15c-7.9-1.34-15.02,0.52-18.08,4.43c-2.21,2.82-3.07,6.07-3.07,6.08
		c-0.24,0.96-0.34,2.39-0.55,5.26c-0.12,1.63-0.18,3.27-0.3,6.57c-0.1,2.73-0.11,3.49-0.1,4.4c0.03,1.38,0.06,2.69,0.31,4.37
		c0.06,0.36,0.34,2.01,0.86,3.72c0.73,2.42,2.23,7.4,6.07,8.91c1.79,0.7,3.38,0.37,5.27,0c0.52-0.1,7.49-1.54,8.99-6.24
		c0.2-0.64,0.25-1.92,0.35-4.47c0.09-2.35,0.05-4.11,0.03-4.65c-0.17-7.19,0-15.42,0.05-18.27c0.01-0.62,0.03-1.65,0.06-3.24
		C185.28,172.7,185.32,170.41,185.32,168.15z"/>
	<path class="st0" d="M141.22,156.29c1.26,7.42-0.49,14.12-4.16,16.99c-2.65,2.07-5.71,2.88-5.71,2.88
		c-0.9,0.23-2.25,0.32-4.94,0.51c-1.53,0.11-3.08,0.17-6.17,0.28c-2.56,0.1-3.28,0.11-4.14,0.09c-1.3-0.02-2.53-0.05-4.11-0.29
		c-0.34-0.05-1.89-0.32-3.5-0.81c-2.27-0.68-6.95-2.09-8.37-5.71c-0.66-1.68-0.34-3.18,0-4.95c0.09-0.49,13.93-8.82,14.44-8.81
		c6.76,0.16,14.48,0,17.16-0.05c0.58-0.01,1.55-0.03,3.05-0.06C136.94,156.33,139.09,156.29,141.22,156.29z"/>
	<path class="st0" d="M122.3,230.72c0.44,7.43-1.72,13.68-5.01,16.7c-2.77,2.53-5.38,3.2-5.38,3.2c-1.41,0.36-3.45,0.54-4.42,0.58
		c-0.86,0.04-1.87,0.05-1.87,0.05c-0.62,0.01-0.95,0-1.54,0c-1.31,0-1.52,0.02-2.85,0.03c-1.51,0.01-1.38-0.02-3.02-0.01
		c-1.47,0-1.6,0.02-3.03,0.03c-1.53,0-2.29,0-2.79-0.04c-0.33-0.03-1.65-0.25-3.5-0.81c-2.27-0.68-6.95-2.09-8.37-5.71
		c-0.66-1.68-0.34-3.18,0-4.95c0.09-0.49,13.93-8.82,14.44-8.81c6.76,0.16,14.48,0,17.16-0.05c1.36-0.03,3.04-0.06,3.05-0.06
		c1.86,0,2.63-0.07,4.23-0.1C120.65,230.75,121.66,230.73,122.3,230.72z"/>
</g>
</svg>
