<?xml version="1.0" encoding="utf-8"?>
<!-- Generator: Adobe Illustrator 25.4.1, SVG Export Plug-In . SVG Version: 6.00 Build 0)  -->
<svg version="1.1" id="Capa_1" xmlns="http://www.w3.org/2000/svg" xmlns:xlink="http://www.w3.org/1999/xlink" x="0px" y="0px"
	 viewBox="0 0 500 500" style="enable-background:new 0 0 500 500;" xml:space="preserve">
<style type="text/css">
	.st0{fill:#161AE9;}
	.st1{fill:#7740FE;}
	.st2{fill:#4F3BE8;}
	.st3{fill:#FFFFFF;}
</style>
<path class="st3" d="M247.76,32.8c-41.41,0-82.82-0.18-124.22,0.05c-51.09,0.28-82.72,31.66-82.87,82.62
	c-0.24,83.51-0.22,167.02,0.02,250.54c0.14,48.61,31.52,80.89,79.97,81.2c84.88,0.53,169.77,0.44,254.66,0
	c47.21-0.24,79.44-32.37,79.68-79.43c0.43-84.89,0.46-169.79,0.01-254.68c-0.26-48.48-32.4-79.92-80.95-80.23
	C331.95,32.61,289.85,32.81,247.76,32.8z"/>
<g>
	<path class="st2" d="M414.35,163.83c-12.05-2.05-22.93,0.79-27.6,6.75c-3.37,4.3-4.68,9.27-4.68,9.27
		c-0.37,1.46-0.52,3.65-0.83,8.03c-0.18,2.48-0.27,5-0.46,10.02c-0.16,4.17-0.17,5.32-0.14,6.72c0.04,2.11,0.09,4.11,0.48,6.67
		c0.08,0.55,0.52,3.06,1.31,5.68c1.11,3.69,3.4,11.29,9.27,13.59c2.73,1.07,5.16,0.56,8.04,0c0.79-0.15,11.43-2.35,13.72-9.53
		c0.31-0.98,0.39-2.93,0.54-6.83c0.14-3.59,0.07-6.28,0.05-7.1c-0.26-10.97-0.01-23.53,0.08-27.88c0.02-0.95,0.05-2.51,0.1-4.95
		C414.29,170.77,414.35,167.28,414.35,163.83z"/>
	<path class="st2" d="M161.95,349.76c-15.56,0-29.65-3.73-42.29-11.16c-12.62-7.45-22.66-17.54-30.11-30.29
		c-7.45-12.73-11.16-27.01-11.16-42.8c0-15.56,3.72-29.6,11.16-42.11c7.45-12.53,17.48-22.51,30.11-29.94
		c12.64-7.45,26.73-11.16,42.29-11.16c15.79,0,30.05,3.66,42.8,10.99c12.75,7.34,22.84,17.32,30.29,29.94
		c7.45,12.64,11.16,26.73,11.16,42.29c0,15.79-3.72,30.07-11.16,42.8c-7.45,12.75-17.54,22.84-30.29,30.29
		C192,346.03,177.73,349.76,161.95,349.76z M161.95,320.33c10.38,0,19.51-2.37,27.41-7.1c7.89-4.75,14.1-11.22,18.61-19.47
		c4.5-8.22,6.76-17.63,6.76-28.25c0-10.37-2.31-19.62-6.94-27.74c-4.63-8.12-10.82-14.48-18.6-19.11
		c-7.78-4.63-16.86-6.94-27.24-6.94c-9.93,0-18.83,2.31-26.72,6.94c-7.9,4.63-14.1,10.99-18.61,19.11s-6.76,17.37-6.76,27.74
		c0,10.61,2.24,20.03,6.76,28.25c4.52,8.25,10.71,14.72,18.61,19.47C143.11,317.96,152.02,320.33,161.95,320.33z"/>
	<path class="st2" d="M185.95,196.81c0.19-27.83,22.49-48.42,52.27-48.51c29.84-0.09,52.49,20.51,53.18,48.07
		c0.26,10.34,0.11,20.83,1.97,30.97c3.78,20.56,21.8,33.48,44.33,33.12c21.58-0.35,39.66-13.98,41.63-34.37
		c0.85-8.84,1.87-43.77,2.42-44.68c2.06-3.43,5.82-4.85,7.87-5.62c1.56-0.59,6.65-2.43,12.95-0.89c2.58,0.63,7.18,1.75,9.64,5.69
		c0.47,0.76,1.59,2.55,1.78,4.97c0.08,1-0.06,1.53-0.05,5.19c0.01,2.74,0.02,3.81,0.04,6.96c0.05,8.16,0.07,12.24,0.03,15.17
		c-0.07,4.37-0.11,7.16-0.34,10.32c-0.36,4.94-0.81,13.03-4.16,21.48c-2.51,6.34-6.01,11.49-10.15,17.02
		c-8.73,11.66-20.04,18.63-30.2,22.81c-6.37,2.62-12.29,4.15-16.83,5.05c-4.09,0.81-7.07,1.11-8.27,1.24
		c-1.63,0.18-4.09,0.44-7.47,0.48c-1.34,0.01-2.68-0.01-4.04-0.07c-23.22-1-48.76-12.64-62.25-34.7
		c-4.15-6.79-11.88-19.43-11.41-35.39c0.17-5.78,0.06-10.88-0.11-20c-0.26-13.81-8.54-22.91-20.64-22.84
		c-10.94,0.07-19.56,9.2-19.87,22.34C217.92,215.41,185.73,228.67,185.95,196.81z"/>
</g>
</svg>
