<svg id="Capa_1" data-name="Capa 1" xmlns="http://www.w3.org/2000/svg" viewBox="0 0 500 500"><defs><style>.cls-1{fill:#1f3b2e;}.cls-2{fill:#fff;}</style></defs><path class="cls-1" d="M246.37,40.9c-39.93,0-79.86-.17-119.78.05-49.27.26-79.77,30.52-79.91,79.66q-.33,120.78,0,241.58c.14,46.87,30.4,78,77.11,78.29q122.77.76,245.56,0c45.52-.23,76.59-31.21,76.83-76.59q.62-122.77,0-245.57C446,71.58,415,41.26,368.15,41,327.56,40.71,287,40.91,246.37,40.9Z"/><path class="cls-2" d="M371.67,360.58c-8.25.77-19.95,1.67-34,2s-27.7.67-39.82-.68c-11.93-1.33-64.35-7.17-75.87-41-2.65-7.78-2.49-18.2-2.17-39,.28-18.48.42-27.71,3.29-31.39,13.77-17.7,77,5.53,116.64,53.44A191.22,191.22,0,0,1,371.67,360.58Z"/><path class="cls-2" d="M371.67,121.28c-15,50.62-37.41,86.84-82.59,96.89-20.2,4.49-41,5.33-61.63,7.69-4.24.49-7.18-.24-9.08-2.18-3.15-3.23-3-8.91-2.75-12,3-45.46,4.71-71.53,22.39-85.16,10.83-8.36,20-6.13,52.38-4.79C312.46,122.69,339.89,123,371.67,121.28Z"/><rect class="cls-2" x="118.8" y="120.41" width="86.88" height="242.47"/></svg>