<svg xmlns="http://www.w3.org/2000/svg" version="1.1" viewBox="-5.0 -10.0 110.0 135.0">
 <path d="m84.285 35.715h-68.57c-6.3008 0-11.43 5.1289-11.43 11.43v34.285c0 6.3008 5.1289 11.43 11.43 11.43h68.57c6.3008 0 11.43-5.1289 11.43-11.43v-34.285c0-6.3008-5.1289-11.43-11.43-11.43zm5.7148 45.715c0 3.1523-2.5625 5.7148-5.7148 5.7148h-68.57c-3.1523 0-5.7148-2.5625-5.7148-5.7148v-34.285c0-3.1523 2.5625-5.7148 5.7148-5.7148h68.57c3.1523 0 5.7148 2.5625 5.7148 5.7148zm-40-30c-7.0898 0-12.855 5.7656-12.855 12.855s5.7656 12.855 12.855 12.855 12.855-5.7656 12.855-12.855-5.7656-12.855-12.855-12.855zm0 20c-3.9375 0-7.1445-3.2031-7.1445-7.1445 0-3.9375 3.2031-7.1445 7.1445-7.1445 3.9375 0 7.1445 3.2031 7.1445 7.1445 0 3.9375-3.2031 7.1445-7.1445 7.1445zm32.855-7.1445c0 1.5781-1.2773 2.8555-2.8555 2.8555h-7.1445c-1.5781 0-2.8555-1.2773-2.8555-2.8555s1.2773-2.8555 2.8555-2.8555h7.1445c1.5781 0 2.8555 1.2773 2.8555 2.8555zm-52.855 0c0 1.5781-1.2773 2.8555-2.8555 2.8555h-7.1445c-1.5781 0-2.8555-1.2773-2.8555-2.8555s1.2773-2.8555 2.8555-2.8555h7.1445c1.5781 0 2.8555 1.2773 2.8555 2.8555zm9.4102-35.121c-1.1172-1.1172-1.1172-2.9258 0-4.0391l12.266-12.266h-5.9609c-1.5781 0-2.8555-1.2773-2.8555-2.8555s1.2773-2.8555 2.8555-2.8555h12.855c1.5781 0 2.8555 1.2773 2.8555 2.8555v12.855c0 1.5781-1.2773 2.8555-2.8555 2.8555-1.5781 0-2.8555-1.2773-2.8555-2.8555v-5.9609l-12.266 12.266c-0.55859 0.55859-1.2891 0.83594-2.0195 0.83594-0.73047 0-1.4609-0.27734-2.0195-0.83594z"/>
<text x="0.0" y="117.5" font-size="5.0" font-weight="bold" font-family="Arbeit Regular, Helvetica, Arial-Unicode, Arial, Sans-serif" fill="#000000">Created by Ricons</text><text x="0.0" y="122.5" font-size="5.0" font-weight="bold" font-family="Arbeit Regular, Helvetica, Arial-Unicode, Arial, Sans-serif" fill="#000000">from Noun Project</text></svg>